#!OML:ASF H:\ManfredETheater\Project 1\Capture day 1\Session 1\subject.ASF
:FULLY-SPECIFIED
:DEGREES
185
root -4.29925 16.3832 -26.4221 -161.281 -30.3902 -181.97
lowerback 18.5061 -3.04996 -4.65023
upperback -1.50046 -5.00547 1.1334
thorax -11.5714 -2.0235 5.28866
lowerneck -19.0839 -0.70831 -3.81293
upperneck 3.1107 -0.559722 2.67519
head 3.96559 -0.285805 1.38635
rclavicle -1.78906e-015 -9.14409e-015
rhumerus -66.6357 18.3462 -67.0447
rradius 80.2865
rwrist -8.22135
rhand -26.5578 6.7071
rfingers 7.12502
rthumb 0.00702449 -23.2726
lclavicle -1.78906e-015 -9.14409e-015
lhumerus 22.2909 -5.8975 78.5
lradius 124.876
lwrist 19.8681
lhand -27.587 -12.4526
lfingers 7.12502
lthumb -0.987018 17.5248
rfemur -76.1379 -10.2053 26.7293
rtibia 75.6328
rfoot -18.5305 -4.98315
rtoes -35.8709
lfemur -9.93775 -4.43951 -20.0384
ltibia 48.5911
lfoot -21.7492 -16.9849
ltoes -12.5097
186
root -4.48419 16.4309 -26.7671 -160.528 -30.3008 -182.517
lowerback 18.2677 -3.28625 -4.55812
upperback -1.58125 -5.2784 1.20265
thorax -11.4949 -2.15666 5.36782
lowerneck -18.8286 -0.477125 -3.843
upperneck 3.15872 -0.212225 2.29402
head 3.92956 -0.135255 1.30204
rclavicle -3.0911e-014 -2.14687e-014
rhumerus -69.7952 19.103 -67.9825
rradius 81.4239
rwrist -8.27477
rhand -26.4283 7.30816
rfingers 7.12502
rthumb 0.132059 -22.6715
lclavicle -3.0911e-014 -2.14687e-014
lhumerus 21.507 -5.57967 76.4867
lradius 127.508
lwrist 18.8182
lhand -27.1881 -12.9177
lfingers 7.12502
lthumb -0.601748 17.0612
rfemur -76.5932 -10.0366 26.2638
rtibia 73.0565
rfoot -18.609 -4.73911
rtoes -36.1573
lfemur -8.03266 -5.21256 -20.6564
ltibia 45.7788
lfoot -19.2119 -17.1651
ltoes -13.5032
187
root -4.67407 16.4835 -27.1202 -159.835 -30.1656 -183.057
lowerback 17.9801 -3.49905 -4.41712
upperback -1.61528 -5.5105 1.24897
thorax -11.3484 -2.28 5.37434
lowerneck -18.5652 -0.292559 -3.94279
upperneck 3.17714 0.0801868 1.98729
head 3.88604 -0.00880556 1.24682
rclavicle 1.26228e-014 4.37326e-015
rhumerus -72.6778 19.322 -68.9026
rradius 82.3123
rwrist -8.01247
rhand -26.3746 7.91064
rfingers 7.12502
rthumb 0.183913 -22.069
lclavicle 1.26228e-014 4.37326e-015
lhumerus 20.3973 -5.77806 74.2415
lradius 129.772
lwrist 17.2432
lhand -26.7503 -13.4783
lfingers 7.12502
lthumb -0.178933 16.5014
rfemur -76.754 -9.88185 25.7476
rtibia 70.5088
rfoot -18.6612 -4.61882
rtoes -36.6069
lfemur -6.17135 -6.08303 -21.3154
ltibia 43.0241
lfoot -16.0869 -17.3557
ltoes -14.6579
188
root -4.86809 16.541 -27.4808 -159.207 -29.9619 -183.577
lowerback 17.6505 -3.66722 -4.2478
upperback -1.60151 -5.67861 1.27617
thorax -11.1365 -2.38059 5.31895
lowerneck -18.3069 -0.155114 -4.10246
upperneck 3.16329 0.315242 1.7388
head 3.83539 0.091501 1.21396
rclavicle 2.78299e-014 -2.32578e-014
rhumerus -75.209 19.0035 -69.7306
rradius 82.9501
rwrist -7.5866
rhand -26.4175 8.44443
rfingers 7.12502
rthumb 0.142556 -21.5353
lclavicle 2.78299e-014 -2.32578e-014
lhumerus 18.9391 -6.5816 71.8885
lradius 131.652
lwrist 15.3251
lhand -26.2598 -13.9864
lfingers 7.12502
lthumb 0.2948 15.9931
rfemur -76.6357 -9.71328 25.1939
rtibia 68.0534
rfoot -18.6789 -4.55949
rtoes -37.1398
lfemur -4.39054 -7.00079 -22.0115
ltibia 40.3645
lfoot -12.2189 -17.5535
ltoes -15.5465
189
root -5.06566 16.6022 -27.8481 -158.659 -29.6771 -184.046
lowerback 17.2967 -3.77799 -4.05903
upperback -1.54342 -5.76764 1.29623
thorax -10.8731 -2.44891 5.21881
lowerneck -18.0568 -0.0521638 -4.30306
upperneck 3.12092 0.507206 1.52399
head 3.77842 0.171609 1.19409
rclavicle 5.60573e-014 -7.55382e-015
rhumerus -77.3304 18.2107 -70.4194
rradius 83.3578
rwrist -7.19974
rhand -26.544 8.8416
rfingers 7.12502
rthumb 0.0203275 -21.1381
lclavicle 5.60573e-014 -7.55382e-015
lhumerus 17.1598 -8.04035 69.5823
lradius 133.105
lwrist 13.2881
lhand -25.7279 -14.4895
lfingers 7.12502
lthumb 0.808562 15.4888
rfemur -76.2499 -9.5128 24.6397
rtibia 65.7578
rfoot -18.6248 -4.54402
rtoes -37.788
lfemur -2.7384 -7.90782 -22.7223
ltibia 37.8422
lfoot -7.49708 -17.6418
ltoes -15.8824
190
root -5.26581 16.6657 -28.2212 -158.194 -29.309 -184.448
lowerback 16.9325 -3.82616 -3.86266
upperback -1.45168 -5.77317 1.31914
thorax -10.5764 -2.47997 5.09373
lowerneck -17.8042 0.0236913 -4.52195
upperneck 3.04886 0.662254 1.31876
head 3.71289 0.233654 1.17669
rclavicle 1.55052e-014 3.27001e-014
rhumerus -79.0171 17.0392 -70.9646
rradius 83.568
rwrist -7.05256
rhand -26.7704 9.06404
rfingers 7.12502
rthumb -0.198291 -20.9156
lclavicle 1.55052e-014 3.27001e-014
lhumerus 15.0688 -10.1728 67.4882
lradius 134.117
lwrist 11.3469
lhand -25.1817 -14.9521
lfingers 7.12502
lthumb 1.33611 15.0235
rfemur -75.6279 -9.26989 24.1128
rtibia 63.6902
rfoot -18.4603 -4.53106
rtoes -38.3688
lfemur -1.26354 -8.74864 -23.4248
ltibia 35.5171
lfoot -1.99284 -17.4402
ltoes -15.682
191
root -5.46775 16.7298 -28.5985 -157.794 -28.8661 -184.792
lowerback 16.572 -3.81488 -3.68619
upperback -1.33101 -5.705 1.35428
thorax -10.2549 -2.47551 4.97458
lowerneck -17.5702 0.0863129 -4.72571
upperneck 2.9624 0.795447 1.08298
head 3.64654 0.283114 1.14538
rclavicle 1.43373e-014 -1.96548e-014
rhumerus -80.2432 15.602 -71.3748
rradius 83.6116
rwrist -7.27148
rhand -27.0612 9.08839
rfingers 7.12502
rthumb -0.479201 -20.8908
lclavicle 1.43373e-014 -1.96548e-014
lhumerus 12.6973 -12.9071 65.791
lradius 134.66
lwrist 9.66722
lhand -24.5994 -15.3159
lfingers 7.12502
lthumb 1.89849 14.6554
rfemur -74.8134 -8.99587 23.6156
rtibia 61.9113
rfoot -18.1389 -4.49137
rtoes -38.8162
lfemur -0.015796 -9.48117 -24.1126
ltibia 33.4746
lfoot 4.05394 -16.8534
ltoes -15.0324
192
root -5.67017 16.7923 -28.9784 -157.436 -28.368 -185.084
lowerback 16.2251 -3.75397 -3.53933
upperback -1.19928 -5.57783 1.40705
thorax -9.93098 -2.44016 4.87919
lowerneck -17.3661 0.150446 -4.9051
upperneck 2.88136 0.925926 0.817468
head 3.5869 0.329714 1.10067
rclavicle -4.20927e-014 3.18055e-015
rhumerus -81.0188 13.9988 -71.6802
rradius 83.5226
rwrist -7.90233
rhand -27.3886 8.9349
rfingers 7.12502
rthumb -0.795455 -21.0434
lclavicle -4.20927e-014 3.18055e-015
lhumerus 10.0757 -16.1183 64.6465
lradius 134.708
lwrist 8.37646
lhand -23.9832 -15.5588
lfingers 7.12502
lthumb 2.49363 14.4063
rfemur -73.8561 -8.70251 23.1607
rtibia 60.4638
rfoot -17.6262 -4.41285
rtoes -39.0562
lfemur 0.939706 -10.0561 -24.7599
ltibia 31.8253
lfoot 10.3204 -15.8899
ltoes -13.9115
